<svg width="126" height="61" viewBox="0 0 126 61" fill="none" xmlns="http://www.w3.org/2000/svg">
<path d="M39.2905 8.37549H49.4326L61.3223 32.7199L55.8551 42.9391L39.2905 8.37549Z" fill="#090909"/>
<path d="M58.4192 8.37549H68.5612L80.4512 32.7199L74.9809 42.9391L58.4192 8.37549Z" fill="#090909"/>
<path d="M77.5547 8.37549C77.5547 8.37549 85.3078 11.6681 85.6102 18.2953L91.8062 8.37549H77.5547Z" fill="#56C2CF"/>
<path d="M12.763 8.37549H9.38796H5.625L11.3906 20.463L17.1563 32.5504V42.9933H27.2813V32.5504L16.138 8.37549H12.763Z" fill="#090909"/>
<path d="M22.5989 8.37549C22.5989 8.37549 30.3521 11.6681 30.6575 18.2953L36.8565 8.37549H22.5989Z" fill="#F3831F"/>
<path d="M106.732 8.45898C106.732 8.45898 113.339 11.2756 113.599 16.912L118.878 8.45898H106.732Z" fill="#0177BB"/>
<path d="M104.564 42.9418C104.564 42.9418 97.9564 40.1252 97.6994 34.4888L92.4197 42.9418H104.564Z" fill="#090909"/>
<path d="M118.358 33.6628C118.363 34.9743 118.092 36.2723 117.561 37.4744C117.03 38.6761 116.253 39.7554 115.277 40.6432C113.61 42.1656 111.425 43.0119 109.157 43.0138C110.028 43.0019 110.859 42.6488 111.467 42.0314C112.075 41.4143 112.411 40.5834 112.401 39.7211C112.402 39.2674 112.31 38.818 112.129 38.4012C111.948 37.9842 111.683 37.6082 111.349 37.2965C111.277 37.2278 96.6621 24.7996 96.3931 24.5422C95.4642 23.6409 94.7299 22.5624 94.2347 21.372C93.7392 20.1815 93.4932 18.9039 93.5112 17.6166C93.5294 16.3292 93.8114 15.0589 94.3399 13.8826C94.8685 12.7062 95.633 11.6483 96.5865 10.773C98.2535 9.26508 100.425 8.42064 102.683 8.40234C101.819 8.42957 101 8.78844 100.399 9.403C99.7979 10.0176 99.4618 10.8396 99.4625 11.695C99.4612 12.1488 99.5541 12.598 99.7353 13.015C99.9161 13.432 100.181 13.8079 100.515 14.1196C100.587 14.1884 115.205 26.6165 115.471 26.8739C116.387 27.7561 117.115 28.8117 117.611 29.9779C118.107 31.1442 118.362 32.3972 118.358 33.6628Z" fill="#090909"/>
<path d="M16.6069 57.3632H15.5233V54.1912L12.6631 48.4893H13.8601L16.0777 52.9712H16.1407L18.3835 48.4893H19.5679L16.6069 54.1912V57.3632ZM22.1354 52.1878C21.8162 52.1878 21.539 52.2607 21.3038 52.4062C21.077 52.5519 20.909 52.7401 20.7998 52.9712C20.5982 53.4078 20.4974 53.8747 20.4974 54.371C20.4974 55.9121 21.0224 56.6826 22.0724 56.6826C22.3916 56.6826 22.6646 56.61 22.8914 56.4643C23.1182 56.3188 23.2904 56.1304 23.408 55.8992C23.6096 55.4712 23.7104 55.0048 23.7104 54.4994C23.7104 52.9584 23.1854 52.1878 22.1354 52.1878ZM22.1354 51.3531C23.0678 51.3531 23.7482 51.6485 24.1766 52.2392C24.605 52.8299 24.8192 53.6005 24.8192 54.5508C24.8192 55.2359 24.6428 55.8694 24.29 56.4514C24.0968 56.7683 23.807 57.0251 23.4206 57.2219C23.0342 57.4191 22.5722 57.5173 22.0346 57.5173C21.1106 57.5173 20.4386 57.2348 20.0186 56.6697C19.5986 56.1047 19.3886 55.347 19.3886 54.3967C19.3886 53.8403 19.4726 53.3693 19.6406 52.9841C19.817 52.5988 20.0018 52.3034 20.195 52.0979C20.3882 51.8841 20.6528 51.7085 20.9888 51.5714C21.3248 51.426 21.707 51.3531 22.1354 51.3531ZM27.9024 52.3163V55.835C27.9024 56.3487 28.1418 56.6055 28.6206 56.6055C28.8978 56.6055 29.2296 56.5243 29.616 56.3615L29.7546 57.2219C29.343 57.4191 28.9104 57.5173 28.4568 57.5173C28.0032 57.5173 27.6252 57.3805 27.3228 57.1064C27.0204 56.8238 26.8692 56.3959 26.8692 55.8222V52.3163H26.0754V51.5072H26.8692V50.3514L27.6504 49.6194H27.9024V51.5072H29.5278V52.3163H27.9024ZM32.55 52.3163V55.835C32.55 56.3487 32.7894 56.6055 33.2682 56.6055C33.5454 56.6055 33.8774 56.5243 34.2636 56.3615L34.4022 57.2219C33.9908 57.4191 33.558 57.5173 33.1044 57.5173C32.6508 57.5173 32.2728 57.3805 31.9704 57.1064C31.668 56.8238 31.5168 56.3959 31.5168 55.8222V52.3163H30.7231V51.5072H31.5168V50.3514L32.298 49.6194H32.55V51.5072H34.1754V52.3163H32.55ZM39.0626 53.8573V53.2923C39.0626 52.5988 38.7098 52.2521 38.0042 52.2521C37.4498 52.2521 36.8702 52.4363 36.2654 52.8043L35.9 52.0337C36.6056 51.5801 37.3657 51.3531 38.1806 51.3531C38.7517 51.3531 39.2179 51.503 39.5792 51.8026C39.9487 52.0938 40.1336 52.5474 40.1336 53.1638V57.3632H39.4532L39.1382 56.5927C38.8695 56.8752 38.5501 57.1022 38.1806 57.2733C37.8111 57.4361 37.475 57.5173 37.1726 57.5173C36.6519 57.5173 36.2361 57.3719 35.9252 57.0807C35.6143 56.7898 35.459 56.4087 35.459 55.9377C35.459 54.5508 36.6601 53.8573 39.0626 53.8573ZM36.971 55.103C36.8113 55.2488 36.7023 55.3814 36.6434 55.5011C36.593 55.6125 36.5678 55.7624 36.5678 55.9506C36.5678 56.1304 36.6434 56.289 36.7946 56.4257C36.9543 56.5542 37.16 56.6184 37.412 56.6184C37.9412 56.6184 38.4915 56.3789 39.0626 55.8992V54.615C38.0042 54.6323 37.3071 54.7948 36.971 55.103ZM51.2487 48.4893L53.0757 56.1432H53.1261L54.9657 48.4893H56.0745L53.8569 57.3632H52.3071L50.6565 50.7624H50.6061L48.9681 57.3632H47.4561L45.2007 48.4893H46.4355L48.2625 56.1432H48.3129L50.1525 48.4893H51.2487ZM59.1013 56.6184C59.7061 56.6184 60.3109 56.4344 60.9157 56.0662L61.2811 56.8367C60.5755 57.2906 59.8195 57.5173 59.0131 57.5173C58.2152 57.5173 57.5811 57.2605 57.1105 56.7468C56.6402 56.2248 56.4049 55.4754 56.4049 54.4994C56.4049 53.5234 56.6487 52.7574 57.1357 52.2007C57.623 51.6356 58.2697 51.3531 59.0761 51.3531C59.8069 51.3531 60.3824 51.5843 60.8023 52.0466C60.9787 52.235 61.1258 52.5089 61.2433 52.8685C61.3693 53.228 61.4323 53.6518 61.4323 54.1398L61.0417 54.5893H57.4759C57.5011 55.9422 58.0429 56.6184 59.1013 56.6184ZM60.3739 53.7803C60.3739 53.3009 60.2523 52.9157 60.0085 52.6245C59.765 52.3336 59.4415 52.1878 59.0383 52.1878C58.6436 52.1878 58.3075 52.3336 58.0303 52.6245C57.7531 52.907 57.5852 53.2923 57.5263 53.7803H60.3739ZM65.2838 56.6441C65.9138 56.6441 66.4008 56.4257 66.7454 55.9891C67.0897 55.5525 67.262 55.0259 67.262 54.4095C67.262 53.7931 67.1108 53.3009 66.8084 52.9327C66.506 52.5561 66.1154 52.3676 65.6366 52.3676C65.166 52.3676 64.662 52.5134 64.1246 52.8043V56.4129C64.5193 56.567 64.9058 56.6441 65.2838 56.6441ZM64.1246 48.1426V51.9824C64.7628 51.6144 65.4054 51.4302 66.0524 51.4302C66.7076 51.4302 67.2535 51.6998 67.6904 52.2392C68.127 52.7702 68.3456 53.4679 68.3456 54.3325C68.3456 55.1974 68.0892 55.9464 67.577 56.5798C67.073 57.2049 66.3504 57.5173 65.4098 57.5173C64.6872 57.5173 63.9145 57.3292 63.0914 56.9523V48.1426H64.1246ZM78.1976 49.5937C77.6095 49.3883 77.0636 49.2855 76.5596 49.2855C76.0556 49.2855 75.6439 49.4184 75.3248 49.6836C75.0054 49.9491 74.846 50.2702 74.846 50.6468C74.846 51.1862 75.1273 51.6099 75.6902 51.9182L77.4668 52.9198C78.4577 53.4849 78.9536 54.2127 78.9536 55.103C78.9536 55.8395 78.6971 56.4257 78.185 56.8624C77.6725 57.299 76.9502 57.5173 76.0178 57.5173C75.0854 57.5173 74.2494 57.3462 73.5104 57.0036L73.8254 56.1047C74.514 56.4129 75.1903 56.567 75.854 56.567C76.5259 56.567 77.0214 56.4344 77.3408 56.1689C77.6599 55.9037 77.8196 55.5827 77.8196 55.2057C77.8196 54.6664 77.538 54.2426 76.9754 53.9344L75.1988 52.9327C74.2075 52.3676 73.712 51.6401 73.712 50.7495C73.712 50.0134 73.9681 49.4268 74.4806 48.9902C74.9928 48.5535 75.6817 48.3352 76.547 48.3352C77.1348 48.3352 77.7944 48.4595 78.5252 48.7076L78.1976 49.5937ZM83.0448 56.6184C83.6496 56.6184 84.2544 56.4344 84.8592 56.0662L85.2246 56.8367C84.519 57.2906 83.763 57.5173 82.9566 57.5173C82.1587 57.5173 81.5246 57.2605 81.054 56.7468C80.5837 56.2248 80.3484 55.4754 80.3484 54.4994C80.3484 53.5234 80.5922 52.7574 81.0792 52.2007C81.5665 51.6356 82.2132 51.3531 83.0196 51.3531C83.7504 51.3531 84.3259 51.5843 84.7458 52.0466C84.9222 52.235 85.0693 52.5089 85.1868 52.8685C85.3128 53.228 85.3758 53.6518 85.3758 54.1398L84.9852 54.5893H81.4194C81.4446 55.9422 81.9864 56.6184 83.0448 56.6184ZM84.3174 53.7803C84.3174 53.3009 84.1958 52.9157 83.952 52.6245C83.7085 52.3336 83.385 52.1878 82.9818 52.1878C82.5871 52.1878 82.251 52.3336 81.9738 52.6245C81.6966 52.907 81.5287 53.2923 81.4698 53.7803H84.3174ZM87.0727 51.5072H87.7531L88.0681 52.5346H88.1185C88.5803 51.9268 89.2147 51.5586 90.0211 51.4302L90.1345 52.4447C89.7395 52.4704 89.3574 52.5731 88.9879 52.7529C88.6181 52.9327 88.3368 53.1725 88.1437 53.472V57.3632H87.0727V51.5072ZM93.7686 57.3632H92.5842L90.5808 51.5072H91.6644L93.1512 56.1946H93.2016L94.6884 51.5072H95.772L93.7686 57.3632ZM98.2401 50.1331C98.1056 50.2702 97.9418 50.3386 97.7487 50.3386C97.5553 50.3386 97.3915 50.2702 97.2573 50.1331C97.1228 49.9877 97.0557 49.8165 97.0557 49.6194C97.0557 49.4226 97.1228 49.2557 97.2573 49.1186C97.4 48.9731 97.5638 48.9003 97.7487 48.9003C97.9333 48.9003 98.093 48.9731 98.2275 49.1186C98.3702 49.2557 98.4417 49.4226 98.4417 49.6194C98.4417 49.8165 98.3742 49.9877 98.2401 50.1331ZM97.2195 51.5072H98.2905V57.3632H97.2195V51.5072ZM102.84 51.3531C103.403 51.3531 103.974 51.4815 104.554 51.7384L104.239 52.5346C103.811 52.3464 103.353 52.2521 102.866 52.2521C102.387 52.2521 102.005 52.4363 101.719 52.8043C101.442 53.1725 101.303 53.7119 101.303 54.4224C101.303 55.1332 101.45 55.6767 101.744 56.0533C102.038 56.4302 102.425 56.6184 102.903 56.6184C103.382 56.6184 103.878 56.4986 104.39 56.2588L104.63 57.1064C104.042 57.3805 103.445 57.5173 102.84 57.5173C102.059 57.5173 101.421 57.2306 100.925 56.6569C100.438 56.0748 100.194 55.33 100.194 54.4224C100.194 53.5064 100.438 52.7657 100.925 52.2007C101.421 51.6356 102.059 51.3531 102.84 51.3531ZM108.462 56.6184C109.066 56.6184 109.671 56.4344 110.276 56.0662L110.641 56.8367C109.936 57.2906 109.18 57.5173 108.373 57.5173C107.575 57.5173 106.941 57.2605 106.471 56.7468C106 56.2248 105.765 55.4754 105.765 54.4994C105.765 53.5234 106.009 52.7574 106.496 52.2007C106.983 51.6356 107.63 51.3531 108.436 51.3531C109.167 51.3531 109.743 51.5843 110.162 52.0466C110.339 52.235 110.486 52.5089 110.604 52.8685C110.73 53.228 110.792 53.6518 110.792 54.1398L110.402 54.5893H106.836C106.861 55.9422 107.403 56.6184 108.462 56.6184ZM109.734 53.7803C109.734 53.3009 109.612 52.9157 109.369 52.6245C109.125 52.3336 108.802 52.1878 108.398 52.1878C108.004 52.1878 107.668 52.3336 107.391 52.6245C107.113 52.907 106.945 53.2923 106.886 53.7803H109.734ZM115.437 52.5346C115.009 52.3464 114.606 52.2521 114.228 52.2521C113.497 52.2521 113.132 52.479 113.132 52.9327C113.132 53.3266 113.619 53.7077 114.593 54.0756C114.955 54.2127 115.286 54.4269 115.589 54.7177C115.9 55.0089 116.055 55.3598 116.055 55.7708C116.055 56.3615 115.866 56.8026 115.488 57.0935C115.11 57.376 114.585 57.5173 113.913 57.5173C113.241 57.5173 112.586 57.3292 111.947 56.9523L112.262 56.156C112.791 56.4643 113.392 56.6184 114.064 56.6184C114.35 56.6184 114.581 56.5587 114.757 56.4386C114.933 56.3102 115.022 56.139 115.022 55.9249C115.022 55.7111 114.921 55.5268 114.719 55.3727C114.518 55.2186 114.274 55.0818 113.988 54.9617C113.703 54.842 113.417 54.7136 113.132 54.5765C112.846 54.431 112.602 54.2297 112.401 53.9729C112.199 53.716 112.098 53.4123 112.098 53.0611C112.098 52.5134 112.279 52.0938 112.64 51.8026C113.01 51.503 113.476 51.3531 114.039 51.3531C114.602 51.3531 115.173 51.4815 115.752 51.7384L115.437 52.5346Z" fill="black"/>
</svg>
