<svg width="138" height="69" viewBox="0 0 138 69" fill="none" xmlns="http://www.w3.org/2000/svg">
<path d="M43.0326 9.47375H54.1406L67.1626 37.0109L61.1748 48.5702L43.0326 9.47375Z" fill="#090909"/>
<path d="M63.983 9.47375H75.091L88.1134 37.0109L82.1221 48.5702L63.983 9.47375Z" fill="#090909"/>
<path d="M84.9408 9.47375C84.9408 9.47375 93.4323 13.1982 93.7635 20.6945L100.55 9.47375H84.9408Z" fill="#56C2CF"/>
<path d="M13.9785 9.47375H10.2821H6.16077L12.4755 23.1465L18.7903 36.8192V48.6316H29.8795V36.8192L17.675 9.47375H13.9785Z" fill="#090909"/>
<path d="M24.7512 9.47375C24.7512 9.47375 33.2428 13.1982 33.5773 20.6945L40.3667 9.47375H24.7512Z" fill="#F3831F"/>
<path d="M116.897 9.56848C116.897 9.56848 124.133 12.7545 124.418 19.1301L130.2 9.56848H116.897Z" fill="#0177BB"/>
<path d="M114.522 48.5734C114.522 48.5734 107.286 45.3874 107.004 39.0118L101.222 48.5734H114.522Z" fill="#090909"/>
<path d="M129.631 38.0775C129.636 39.561 129.338 41.0292 128.757 42.3889C128.176 43.7482 127.324 44.9691 126.256 45.9733C124.43 47.6954 122.037 48.6526 119.553 48.6548C120.507 48.6414 121.417 48.2419 122.083 47.5436C122.749 46.8456 123.117 45.9057 123.106 44.9303C123.107 44.4171 123.006 43.9087 122.808 43.4373C122.61 42.9656 122.319 42.5403 121.954 42.1877C121.874 42.11 105.868 28.0519 105.573 27.7607C104.556 26.7412 103.752 25.5213 103.209 24.1747C102.667 22.8282 102.397 21.383 102.417 19.9268C102.437 18.4706 102.746 17.0337 103.325 15.7031C103.904 14.3725 104.741 13.1759 105.785 12.1857C107.611 10.48 109.989 9.52485 112.462 9.50415C111.516 9.53495 110.619 9.94088 109.961 10.636C109.303 11.3312 108.934 12.261 108.935 13.2286C108.934 13.7419 109.036 14.2501 109.234 14.7217C109.432 15.1934 109.722 15.6186 110.087 15.9712C110.167 16.049 126.176 30.1071 126.468 30.3983C127.472 31.3961 128.269 32.5901 128.812 33.9093C129.356 35.2285 129.634 36.6459 129.631 38.0775Z" fill="#090909"/>
<path d="M18.1884 64.8862H17.0016V61.2982L13.869 54.8485H15.18L17.6088 59.9182H17.6778L20.1342 54.8485H21.4314L18.1884 61.2982V64.8862ZM24.2435 59.0321C23.8939 59.0321 23.5903 59.1145 23.3327 59.279C23.0843 59.4439 22.9003 59.6567 22.7807 59.9182C22.5599 60.4121 22.4495 60.9401 22.4495 61.5016C22.4495 63.2447 23.0245 64.1163 24.1745 64.1163C24.5241 64.1163 24.8231 64.0342 25.0715 63.8694C25.3199 63.7048 25.5085 63.4917 25.6373 63.2302C25.8581 62.7461 25.9685 62.2184 25.9685 61.6468C25.9685 59.9037 25.3935 59.0321 24.2435 59.0321ZM24.2435 58.0879C25.2647 58.0879 26.0099 58.422 26.4791 59.0902C26.9483 59.7584 27.1829 60.63 27.1829 61.7049C27.1829 62.4799 26.9897 63.1964 26.6033 63.8548C26.3917 64.2133 26.0743 64.5038 25.6511 64.7264C25.2279 64.9494 24.7219 65.0605 24.1331 65.0605C23.1211 65.0605 22.3851 64.7409 21.9251 64.1018C21.4651 63.4626 21.2351 62.6056 21.2351 61.5306C21.2351 60.9013 21.3271 60.3685 21.5111 59.9327C21.7043 59.4969 21.9067 59.1628 22.1183 58.9304C22.3299 58.6885 22.6197 58.4899 22.9877 58.3348C23.3557 58.1703 23.7743 58.0879 24.2435 58.0879ZM30.5597 59.1774V63.1576C30.5597 63.7386 30.8219 64.0291 31.3463 64.0291C31.6499 64.0291 32.0133 63.9373 32.4365 63.7531L32.5883 64.7264C32.1375 64.9494 31.6637 65.0605 31.1669 65.0605C30.6701 65.0605 30.2561 64.9058 29.9249 64.5957C29.5937 64.2761 29.4281 63.792 29.4281 63.143V59.1774H28.5587V58.2622H29.4281V56.9548L30.2837 56.1268H30.5597V58.2622H32.3399V59.1774H30.5597ZM35.6499 59.1774V63.1576C35.6499 63.7386 35.9121 64.0291 36.4365 64.0291C36.7401 64.0291 37.1037 63.9373 37.5267 63.7531L37.6785 64.7264C37.2279 64.9494 36.7539 65.0605 36.2571 65.0605C35.7603 65.0605 35.3463 64.9058 35.0151 64.5957C34.6839 64.2761 34.5183 63.792 34.5183 63.143V59.1774H33.649V58.2622H34.5183V56.9548L35.3739 56.1268H35.6499V58.2622H37.4301V59.1774H35.6499ZM42.7828 60.9205V60.2813C42.7828 59.4969 42.3964 59.1047 41.6236 59.1047C41.0164 59.1047 40.3816 59.3132 39.7192 59.7294L39.319 58.8578C40.0918 58.3446 40.9243 58.0879 41.8168 58.0879C42.4423 58.0879 42.9529 58.2575 43.3486 58.5963C43.7533 58.9257 43.9558 59.4388 43.9558 60.1361V64.8862H43.2106L42.8656 64.0146C42.5713 64.3342 42.2215 64.5909 41.8168 64.7845C41.4121 64.9686 41.044 65.0605 40.7128 65.0605C40.1425 65.0605 39.6871 64.896 39.3466 64.5666C39.0061 64.2376 38.836 63.8065 38.836 63.2738C38.836 61.7049 40.1515 60.9205 42.7828 60.9205ZM40.492 62.3296C40.3171 62.4944 40.1977 62.6444 40.1332 62.7799C40.078 62.9059 40.0504 63.0755 40.0504 63.2883C40.0504 63.4917 40.1332 63.6711 40.2988 63.8258C40.4737 63.971 40.699 64.0437 40.975 64.0437C41.5546 64.0437 42.1573 63.7727 42.7828 63.2302V61.7776C41.6236 61.7972 40.8601 61.9809 40.492 62.3296ZM56.1294 54.8485L58.1304 63.5062H58.1856L60.2004 54.8485H61.4148L58.986 64.8862H57.2886L55.4808 57.4197H55.4256L53.6316 64.8862H51.9756L49.5054 54.8485H50.8578L52.8588 63.5062H52.914L54.9288 54.8485H56.1294ZM64.7299 64.0437C65.3923 64.0437 66.0547 63.8356 66.7171 63.419L67.1173 64.2906C66.3445 64.8041 65.5165 65.0605 64.6333 65.0605C63.7595 65.0605 63.065 64.77 62.5495 64.1889C62.0345 63.5984 61.7767 62.7508 61.7767 61.6468C61.7767 60.5428 62.0438 59.6763 62.5771 59.0466C63.1109 58.4075 63.8191 58.0879 64.7023 58.0879C65.5027 58.0879 66.1331 58.3494 66.5929 58.8723C66.7861 59.0855 66.9473 59.3952 67.0759 59.802C67.2139 60.2087 67.2829 60.6881 67.2829 61.2401L66.8551 61.7485H62.9497C62.9773 63.2789 63.5707 64.0437 64.7299 64.0437ZM66.1237 60.8334C66.1237 60.2912 65.9906 59.8554 65.7235 59.526C65.4569 59.197 65.1025 59.0321 64.6609 59.0321C64.2287 59.0321 63.8605 59.197 63.5569 59.526C63.2533 59.8456 63.0695 60.2814 63.0049 60.8334H66.1237ZM71.5013 64.0727C72.1913 64.0727 72.7246 63.8258 73.1021 63.3319C73.4791 62.838 73.6679 62.2424 73.6679 61.5451C73.6679 60.8479 73.5023 60.2912 73.1711 59.8746C72.8399 59.4486 72.4121 59.2355 71.8877 59.2355C71.3722 59.2355 70.8202 59.4003 70.2317 59.7294V63.8112C70.6639 63.9856 71.0873 64.0727 71.5013 64.0727ZM70.2317 54.4563V58.7997C70.9306 58.3835 71.6344 58.175 72.3431 58.175C73.0607 58.175 73.6585 58.4801 74.1371 59.0902C74.6152 59.6909 74.8547 60.48 74.8547 61.458C74.8547 62.4363 74.5738 63.2836 74.0129 64.0001C73.4609 64.7072 72.6694 65.0605 71.6393 65.0605C70.8478 65.0605 70.0015 64.8477 69.1001 64.4214V54.4563H70.2317ZM85.6449 56.0978C85.0008 55.8654 84.4029 55.7491 83.8509 55.7491C83.2989 55.7491 82.848 55.8995 82.4985 56.1995C82.1486 56.4998 81.9741 56.8629 81.9741 57.2889C81.9741 57.899 82.2822 58.3784 82.8987 58.727L84.8445 59.8601C85.9298 60.4992 86.4729 61.3225 86.4729 62.3296C86.4729 63.1626 86.192 63.8258 85.6311 64.3197C85.0698 64.8136 84.2787 65.0605 83.2575 65.0605C82.2363 65.0605 81.3206 64.8669 80.5113 64.4795L80.8563 63.4626C81.6104 63.8112 82.3512 63.9856 83.0781 63.9856C83.814 63.9856 84.3567 63.8356 84.7065 63.5352C85.056 63.2353 85.2309 62.8721 85.2309 62.4458C85.2309 61.8357 84.9224 61.3563 84.3063 61.0077L82.3605 59.8746C81.2748 59.2355 80.7321 58.4125 80.7321 57.4051C80.7321 56.5724 81.0126 55.9089 81.5739 55.415C82.1348 54.9211 82.8894 54.6742 83.8371 54.6742C84.4808 54.6742 85.2033 54.8147 86.0037 55.0955L85.6449 56.0978ZM90.9537 64.0437C91.6161 64.0437 92.2785 63.8356 92.9409 63.419L93.3411 64.2906C92.5683 64.8041 91.7403 65.0605 90.8571 65.0605C89.9833 65.0605 89.2888 64.77 88.7733 64.1889C88.2583 63.5984 88.0005 62.7508 88.0005 61.6468C88.0005 60.5428 88.2676 59.6763 88.8009 59.0466C89.3347 58.4075 90.0429 58.0879 90.9261 58.0879C91.7265 58.0879 92.3569 58.3494 92.8167 58.8723C93.0099 59.0855 93.1711 59.3952 93.2997 59.802C93.4377 60.2087 93.5067 60.6881 93.5067 61.2401L93.0789 61.7485H89.1735C89.2011 63.2789 89.7945 64.0437 90.9537 64.0437ZM92.3475 60.8334C92.3475 60.2912 92.2144 59.8554 91.9473 59.526C91.6807 59.197 91.3263 59.0321 90.8847 59.0321C90.4524 59.0321 90.0843 59.197 89.7807 59.526C89.4771 59.8456 89.2933 60.2814 89.2287 60.8334H92.3475ZM95.3652 58.2622H96.1105L96.4554 59.4243H96.5107C97.0164 58.7368 97.7113 58.3203 98.5945 58.175L98.7186 59.3226C98.286 59.3517 97.8675 59.4679 97.4628 59.6712C97.0578 59.8746 96.7497 60.1459 96.5383 60.4847V64.8862H95.3652V58.2622ZM102.699 64.8862H101.402L99.2075 58.2622H100.394L102.023 63.5643H102.078L103.706 58.2622H104.893L102.699 64.8862ZM107.596 56.7079C107.449 56.8629 107.269 56.9403 107.058 56.9403C106.846 56.9403 106.667 56.8629 106.52 56.7079C106.372 56.5434 106.299 56.3498 106.299 56.1268C106.299 55.9042 106.372 55.7154 106.52 55.5603C106.676 55.3958 106.855 55.3134 107.058 55.3134C107.26 55.3134 107.435 55.3958 107.582 55.5603C107.739 55.7154 107.817 55.9042 107.817 56.1268C107.817 56.3498 107.743 56.5434 107.596 56.7079ZM106.478 58.2622H107.651V64.8862H106.478V58.2622ZM112.635 58.0879C113.251 58.0879 113.877 58.2331 114.511 58.5237L114.166 59.4243C113.697 59.2115 113.196 59.1047 112.662 59.1047C112.138 59.1047 111.719 59.3132 111.406 59.7294C111.103 60.1459 110.951 60.756 110.951 61.5597C110.951 62.3637 111.112 62.9785 111.434 63.4045C111.756 63.8309 112.179 64.0437 112.704 64.0437C113.228 64.0437 113.771 63.9082 114.332 63.6369L114.594 64.5957C113.95 64.9058 113.297 65.0605 112.635 65.0605C111.779 65.0605 111.08 64.7362 110.537 64.0872C110.004 63.4288 109.737 62.5863 109.737 61.5597C109.737 60.5236 110.004 59.6858 110.537 59.0466C111.08 58.4075 111.779 58.0879 112.635 58.0879ZM118.791 64.0437C119.453 64.0437 120.116 63.8356 120.778 63.419L121.178 64.2906C120.406 64.8041 119.578 65.0605 118.694 65.0605C117.821 65.0605 117.126 64.77 116.611 64.1889C116.096 63.5984 115.838 62.7508 115.838 61.6468C115.838 60.5428 116.105 59.6763 116.638 59.0466C117.172 58.4075 117.88 58.0879 118.763 58.0879C119.564 58.0879 120.194 58.3494 120.654 58.8723C120.847 59.0855 121.008 59.3952 121.137 59.802C121.275 60.2087 121.344 60.6881 121.344 61.2401L120.916 61.7485H117.011C117.038 63.2789 117.632 64.0437 118.791 64.0437ZM120.185 60.8334C120.185 60.2912 120.051 59.8554 119.785 59.526C119.518 59.197 119.164 59.0321 118.722 59.0321C118.29 59.0321 117.922 59.197 117.618 59.526C117.314 59.8456 117.131 60.2814 117.066 60.8334H120.185ZM126.431 59.4243C125.962 59.2115 125.521 59.1047 125.107 59.1047C124.306 59.1047 123.906 59.3615 123.906 59.8746C123.906 60.3202 124.44 60.7513 125.507 61.1675C125.903 61.3225 126.266 61.5647 126.597 61.8938C126.938 62.2232 127.108 62.6201 127.108 63.0849C127.108 63.7531 126.901 64.2521 126.487 64.5811C126.073 64.9007 125.498 65.0605 124.762 65.0605C124.026 65.0605 123.308 64.8477 122.609 64.4214L122.954 63.5207C123.533 63.8693 124.191 64.0437 124.927 64.0437C125.24 64.0437 125.493 63.9761 125.686 63.8403C125.879 63.695 125.976 63.5015 125.976 63.2592C125.976 63.0174 125.866 62.8089 125.645 62.6346C125.424 62.4603 125.157 62.3056 124.844 62.1698C124.532 62.0343 124.219 61.8891 123.906 61.734C123.593 61.5695 123.326 61.3418 123.106 61.0512C122.885 60.7607 122.774 60.4172 122.774 60.0199C122.774 59.4003 122.972 58.9257 123.368 58.5963C123.773 58.2575 124.283 58.0879 124.9 58.0879C125.516 58.0879 126.142 58.2331 126.776 58.5237L126.431 59.4243Z" fill="black"/>
</svg>
