<svg width="196" height="98" viewBox="0 0 196 98" fill="none" xmlns="http://www.w3.org/2000/svg">
<path d="M66.2764 6.09442H82.0797L100.606 44.3195L92.0875 60.3653L66.2764 6.09442Z" fill="#010101"/>
<path d="M96.083 6.09442H111.886L130.413 44.3195L121.889 60.3653L96.083 6.09442Z" fill="#010101"/>
<path d="M125.899 6.09442C125.899 6.09442 137.98 11.2644 138.452 21.6702L148.106 6.09442H125.899Z" fill="#55C5CE"/>
<path d="M8.36853 6.09442H7.02096H4.96191L29 41V60H45.5V37.5L23.074 6.09442H8.36853Z" fill="#010101"/>
<path d="M40.2676 6.09442C40.2676 6.09442 52.3486 11.2644 52.8245 21.6702L62.4836 6.09442H40.2676Z" fill="#F58220"/>
<path d="M171.363 6.22601C171.363 6.22601 181.659 10.6487 182.064 19.4988L190.291 6.22601H171.363Z" fill="#FFDE11"/>
<path d="M167.985 60.37C167.985 60.37 157.69 55.9473 157.289 47.0972L149.062 60.37H167.985Z" fill="#010101"/>
<path d="M189.48 45.8C189.487 47.8594 189.064 49.8977 188.237 51.7849C187.411 53.672 186.199 55.3666 184.679 56.7604C182.081 59.151 178.677 60.4797 175.142 60.4828C176.499 60.4642 177.794 59.9095 178.741 58.9404C179.689 57.9712 180.213 56.6666 180.198 55.3128C180.199 54.6002 180.055 53.8949 179.773 53.2401C179.491 52.5854 179.077 51.9952 178.558 51.5058C178.445 51.3977 155.673 31.8833 155.254 31.4791C153.806 30.064 152.662 28.3705 151.89 26.5013C151.118 24.6321 150.735 22.6261 150.763 20.6047C150.791 18.5833 151.231 16.5887 152.054 14.7416C152.878 12.8946 154.069 11.2335 155.555 9.85912C158.152 7.49133 161.536 6.16547 165.054 6.13672C163.708 6.17945 162.432 6.74296 161.495 7.70793C160.559 8.6729 160.035 9.96358 160.036 11.3067C160.035 12.0193 160.179 12.7247 160.461 13.3794C160.743 14.0341 161.157 14.6243 161.676 15.1137C161.789 15.2218 184.566 34.7362 184.98 35.1404C186.408 36.5255 187.543 38.183 188.316 40.0142C189.089 41.8455 189.485 43.8131 189.48 45.8Z" fill="#010101"/>
<path d="M15.996 89H14.104V83.566L9.11 73.798H11.2L15.072 81.476H15.182L19.098 73.798H21.166L15.996 83.566V89ZM25.649 80.134C25.0917 80.134 24.6077 80.2587 24.197 80.508C23.801 80.7573 23.5077 81.08 23.317 81.476C22.965 82.224 22.789 83.0233 22.789 83.874C22.789 86.514 23.7057 87.834 25.539 87.834C26.0963 87.834 26.573 87.7093 26.969 87.46C27.365 87.2107 27.6657 86.888 27.871 86.492C28.223 85.7587 28.399 84.9593 28.399 84.094C28.399 81.454 27.4823 80.134 25.649 80.134ZM25.649 78.704C27.277 78.704 28.465 79.21 29.213 80.222C29.961 81.234 30.335 82.554 30.335 84.182C30.335 85.3553 30.027 86.4407 29.411 87.438C29.0737 87.9807 28.5677 88.4207 27.893 88.758C27.2183 89.0953 26.4117 89.264 25.473 89.264C23.8597 89.264 22.6863 88.78 21.953 87.812C21.2197 86.844 20.853 85.546 20.853 83.918C20.853 82.9647 20.9997 82.158 21.293 81.498C21.601 80.838 21.9237 80.332 22.261 79.98C22.5983 79.6133 23.0603 79.3127 23.647 79.078C24.2337 78.8287 24.901 78.704 25.649 78.704ZM35.7183 80.354V86.382C35.7183 87.262 36.1363 87.702 36.9723 87.702C37.4563 87.702 38.0356 87.5627 38.7103 87.284L38.9523 88.758C38.2336 89.0953 37.4783 89.264 36.6863 89.264C35.8943 89.264 35.2343 89.0293 34.7063 88.56C34.1783 88.076 33.9143 87.3427 33.9143 86.36V80.354H32.5283V78.968H33.9143V76.988L35.2783 75.734H35.7183V78.968H38.5563V80.354H35.7183ZM43.8334 80.354V86.382C43.8334 87.262 44.2514 87.702 45.0874 87.702C45.5714 87.702 46.1507 87.5627 46.8254 87.284L47.0674 88.758C46.3487 89.0953 45.5934 89.264 44.8014 89.264C44.0094 89.264 43.3494 89.0293 42.8214 88.56C42.2934 88.076 42.0294 87.3427 42.0294 86.36V80.354H40.6434V78.968H42.0294V76.988L43.3934 75.734H43.8334V78.968H46.6714V80.354H43.8334ZM55.2045 82.994V82.026C55.2045 80.838 54.5885 80.244 53.3565 80.244C52.3885 80.244 51.3765 80.5593 50.3205 81.19L49.6825 79.87C50.9145 79.0927 52.2418 78.704 53.6645 78.704C54.6618 78.704 55.4758 78.9607 56.1065 79.474C56.7518 79.9727 57.0745 80.75 57.0745 81.806V89H55.8865L55.3365 87.68C54.8671 88.164 54.3098 88.5527 53.6645 88.846C53.0191 89.1247 52.4325 89.264 51.9045 89.264C50.9951 89.264 50.2691 89.0147 49.7265 88.516C49.1838 88.0173 48.9125 87.3647 48.9125 86.558C48.9125 84.182 51.0098 82.994 55.2045 82.994ZM51.5525 85.128C51.2738 85.3773 51.0831 85.6047 50.9805 85.81C50.8925 86.0007 50.8485 86.2573 50.8485 86.58C50.8485 86.888 50.9805 87.1593 51.2445 87.394C51.5231 87.614 51.8825 87.724 52.3225 87.724C53.2465 87.724 54.2071 87.3133 55.2045 86.492V84.292C53.3565 84.3213 52.1391 84.6 51.5525 85.128ZM76.4816 73.798L79.6716 86.91H79.7596L82.9716 73.798H84.9076L81.0356 89H78.3296L75.4476 77.692H75.3596L72.4996 89H69.8596L65.9216 73.798H68.0776L71.2676 86.91H71.3556L74.5676 73.798H76.4816ZM90.1929 87.724C91.2489 87.724 92.3049 87.4087 93.3609 86.778L93.9989 88.098C92.7669 88.8753 91.4469 89.264 90.0389 89.264C88.6456 89.264 87.5382 88.824 86.7169 87.944C85.8956 87.0493 85.4849 85.766 85.4849 84.094C85.4849 82.422 85.9102 81.1093 86.7609 80.156C87.6116 79.188 88.7409 78.704 90.1489 78.704C91.4249 78.704 92.4296 79.1 93.1629 79.892C93.4709 80.2147 93.7276 80.684 93.9329 81.3C94.1529 81.916 94.2629 82.642 94.2629 83.478L93.5809 84.248H87.3549C87.3989 86.5653 88.3449 87.724 90.1929 87.724ZM92.4149 82.862C92.4149 82.0407 92.2022 81.3807 91.7769 80.882C91.3516 80.3833 90.7869 80.134 90.0829 80.134C89.3936 80.134 88.8069 80.3833 88.3229 80.882C87.8389 81.366 87.5456 82.026 87.4429 82.862H92.4149ZM100.987 87.768C102.087 87.768 102.938 87.394 103.539 86.646C104.141 85.898 104.441 84.996 104.441 83.94C104.441 82.884 104.177 82.0407 103.649 81.41C103.121 80.7647 102.439 80.442 101.603 80.442C100.782 80.442 99.902 80.6913 98.9633 81.19V87.372C99.6527 87.636 100.327 87.768 100.987 87.768ZM98.9633 73.204V79.782C100.078 79.1513 101.2 78.836 102.329 78.836C103.473 78.836 104.427 79.298 105.189 80.222C105.952 81.1313 106.333 82.3267 106.333 83.808C106.333 85.2893 105.886 86.5727 104.991 87.658C104.111 88.7287 102.85 89.264 101.207 89.264C99.946 89.264 98.5967 88.9413 97.1593 88.296V73.204H98.9633ZM123.535 75.69C122.508 75.338 121.555 75.162 120.675 75.162C119.795 75.162 119.076 75.3893 118.519 75.844C117.962 76.2987 117.683 76.8487 117.683 77.494C117.683 78.418 118.174 79.144 119.157 79.672L122.259 81.388C123.99 82.356 124.855 83.6027 124.855 85.128C124.855 86.3893 124.408 87.394 123.513 88.142C122.618 88.89 121.357 89.264 119.729 89.264C118.101 89.264 116.642 88.9707 115.351 88.384L115.901 86.844C117.104 87.372 118.284 87.636 119.443 87.636C120.616 87.636 121.482 87.4087 122.039 86.954C122.596 86.4993 122.875 85.9493 122.875 85.304C122.875 84.38 122.384 83.654 121.401 83.126L118.299 81.41C116.568 80.442 115.703 79.1953 115.703 77.67C115.703 76.4087 116.15 75.404 117.045 74.656C117.94 73.908 119.142 73.534 120.653 73.534C121.68 73.534 122.831 73.7467 124.107 74.172L123.535 75.69ZM131.999 87.724C133.055 87.724 134.111 87.4087 135.167 86.778L135.805 88.098C134.573 88.8753 133.253 89.264 131.845 89.264C130.452 89.264 129.344 88.824 128.523 87.944C127.702 87.0493 127.291 85.766 127.291 84.094C127.291 82.422 127.716 81.1093 128.567 80.156C129.418 79.188 130.547 78.704 131.955 78.704C133.231 78.704 134.236 79.1 134.969 79.892C135.277 80.2147 135.534 80.684 135.739 81.3C135.959 81.916 136.069 82.642 136.069 83.478L135.387 84.248H129.161C129.205 86.5653 130.151 87.724 131.999 87.724ZM134.221 82.862C134.221 82.0407 134.008 81.3807 133.583 80.882C133.158 80.3833 132.593 80.134 131.889 80.134C131.2 80.134 130.613 80.3833 130.129 80.882C129.645 81.366 129.352 82.026 129.249 82.862H134.221ZM139.031 78.968H140.219L140.769 80.728H140.857C141.664 79.6867 142.771 79.056 144.179 78.836L144.377 80.574C143.688 80.618 143.021 80.794 142.375 81.102C141.73 81.41 141.239 81.8207 140.901 82.334V89H139.031V78.968ZM150.723 89H148.655L145.157 78.968H147.049L149.645 86.998H149.733L152.329 78.968H154.221L150.723 89ZM158.53 76.614C158.295 76.8487 158.009 76.966 157.672 76.966C157.335 76.966 157.049 76.8487 156.814 76.614C156.579 76.3647 156.462 76.0713 156.462 75.734C156.462 75.3967 156.579 75.1107 156.814 74.876C157.063 74.6267 157.349 74.502 157.672 74.502C157.995 74.502 158.273 74.6267 158.508 74.876C158.757 75.1107 158.882 75.3967 158.882 75.734C158.882 76.0713 158.765 76.3647 158.53 76.614ZM156.748 78.968H158.618V89H156.748V78.968ZM166.563 78.704C167.545 78.704 168.543 78.924 169.555 79.364L169.005 80.728C168.257 80.4053 167.457 80.244 166.607 80.244C165.771 80.244 165.103 80.5593 164.605 81.19C164.121 81.8207 163.879 82.7447 163.879 83.962C163.879 85.1793 164.135 86.1107 164.649 86.756C165.162 87.4013 165.837 87.724 166.673 87.724C167.509 87.724 168.374 87.5187 169.269 87.108L169.687 88.56C168.66 89.0293 167.619 89.264 166.563 89.264C165.199 89.264 164.084 88.7727 163.219 87.79C162.368 86.7927 161.943 85.5167 161.943 83.962C161.943 82.3927 162.368 81.124 163.219 80.156C164.084 79.188 165.199 78.704 166.563 78.704ZM176.377 87.724C177.433 87.724 178.489 87.4087 179.545 86.778L180.183 88.098C178.951 88.8753 177.631 89.264 176.223 89.264C174.83 89.264 173.722 88.824 172.901 87.944C172.08 87.0493 171.669 85.766 171.669 84.094C171.669 82.422 172.094 81.1093 172.945 80.156C173.796 79.188 174.925 78.704 176.333 78.704C177.609 78.704 178.614 79.1 179.347 79.892C179.655 80.2147 179.912 80.684 180.117 81.3C180.337 81.916 180.447 82.642 180.447 83.478L179.765 84.248H173.539C173.583 86.5653 174.529 87.724 176.377 87.724ZM178.599 82.862C178.599 82.0407 178.386 81.3807 177.961 80.882C177.536 80.3833 176.971 80.134 176.267 80.134C175.578 80.134 174.991 80.3833 174.507 80.882C174.023 81.366 173.73 82.026 173.627 82.862H178.599ZM188.557 80.728C187.809 80.4053 187.105 80.244 186.445 80.244C185.169 80.244 184.531 80.6327 184.531 81.41C184.531 82.0847 185.382 82.7373 187.083 83.368C187.714 83.6027 188.293 83.9693 188.821 84.468C189.364 84.9667 189.635 85.568 189.635 86.272C189.635 87.284 189.305 88.0393 188.645 88.538C187.985 89.022 187.069 89.264 185.895 89.264C184.722 89.264 183.578 88.9413 182.463 88.296L183.013 86.932C183.937 87.46 184.986 87.724 186.159 87.724C186.658 87.724 187.061 87.6213 187.369 87.416C187.677 87.196 187.831 86.9027 187.831 86.536C187.831 86.1693 187.655 85.854 187.303 85.59C186.951 85.326 186.526 85.0913 186.027 84.886C185.529 84.6807 185.03 84.4607 184.531 84.226C184.033 83.9767 183.607 83.632 183.255 83.192C182.903 82.752 182.727 82.2313 182.727 81.63C182.727 80.6913 183.043 79.9727 183.673 79.474C184.319 78.9607 185.133 78.704 186.115 78.704C187.098 78.704 188.095 78.924 189.107 79.364L188.557 80.728Z" fill="black"/>
</svg>
