<svg width="120" height="60" viewBox="0 0 120 60" fill="none" xmlns="http://www.w3.org/2000/svg">
<path d="M37.4196 8.23804H47.0787L58.4022 32.1834L53.1954 42.235L37.4196 8.23804Z" fill="#090909"/>
<path d="M55.6373 8.23804H65.2964L76.6202 32.1834L71.4104 42.235L55.6373 8.23804Z" fill="#090909"/>
<path d="M73.8616 8.23804C73.8616 8.23804 81.2455 11.4767 81.5335 17.9952L87.4345 8.23804H73.8616Z" fill="#56C2CF"/>
<path d="M12.1552 8.23804H8.94095H5.35718L10.8483 20.1274L16.3393 32.0167V42.2884H25.9822V32.0167L15.3695 8.23804H12.1552Z" fill="#090909"/>
<path d="M21.5228 8.23804C21.5228 8.23804 28.9068 11.4767 29.1977 17.9952L35.1015 8.23804H21.5228Z" fill="#F3831F"/>
<path d="M101.649 8.32043C101.649 8.32043 107.942 11.0909 108.19 16.6349L113.218 8.32043H101.649Z" fill="#0177BB"/>
<path d="M99.5844 42.2378C99.5844 42.2378 93.2919 39.4673 93.0471 33.9233L88.0188 42.2378H99.5844Z" fill="#090909"/>
<path d="M112.722 33.1108C112.727 34.4008 112.468 35.6775 111.963 36.8598C111.458 38.0418 110.717 39.1035 109.788 39.9767C108.2 41.4742 106.119 42.3066 103.959 42.3085C104.789 42.2968 105.58 41.9494 106.159 41.3421C106.738 40.7352 107.058 39.9179 107.049 39.0697C107.05 38.6235 106.962 38.1814 106.789 37.7715C106.617 37.3613 106.364 36.9915 106.047 36.6849C105.978 36.6173 92.0593 24.3928 91.8031 24.1396C90.9184 23.2532 90.2191 22.1923 89.7475 21.0214C89.2756 19.8505 89.0413 18.5938 89.0584 17.3276C89.0758 16.0613 89.3443 14.8119 89.8477 13.6548C90.3511 12.4978 91.0792 11.4572 91.9873 10.5962C93.5749 9.11299 95.6428 8.2824 97.7932 8.2644C96.9706 8.29118 96.1906 8.64417 95.6182 9.24866C95.0458 9.85314 94.7257 10.6617 94.7263 11.503C94.7251 11.9494 94.8136 12.3913 94.9861 12.8014C95.1583 13.2116 95.4109 13.5813 95.7283 13.8879C95.7976 13.9556 109.719 26.18 109.972 26.4332C110.845 27.3009 111.538 28.3392 112.011 29.4863C112.483 30.6334 112.725 31.8659 112.722 33.1108Z" fill="#090909"/>
<path d="M15.8161 56.4227H14.7841V53.3027L12.0601 47.6943H13.2001L15.3121 52.1027H15.3721L17.5081 47.6943H18.6361L15.8161 53.3027V56.4227ZM21.0813 51.3322C20.7773 51.3322 20.5133 51.4039 20.2893 51.547C20.0733 51.6903 19.9133 51.8754 19.8093 52.1027C19.6173 52.5322 19.5213 52.9914 19.5213 53.4796C19.5213 54.9954 20.0213 55.7533 21.0213 55.7533C21.3253 55.7533 21.5853 55.6819 21.8013 55.5385C22.0173 55.3955 22.1813 55.2101 22.2933 54.9827C22.4853 54.5618 22.5813 54.103 22.5813 53.6059C22.5813 52.0901 22.0813 51.3322 21.0813 51.3322ZM21.0813 50.5112C21.9693 50.5112 22.6173 50.8017 23.0253 51.3827C23.4333 51.9638 23.6373 52.7217 23.6373 53.6564C23.6373 54.3303 23.4693 54.9534 23.1333 55.5259C22.9493 55.8376 22.6733 56.0902 22.3053 56.2838C21.9373 56.4777 21.4973 56.5743 20.9853 56.5743C20.1053 56.5743 19.4653 56.2964 19.0653 55.7406C18.6653 55.1848 18.4653 54.4396 18.4653 53.5048C18.4653 52.9576 18.5453 52.4943 18.7053 52.1154C18.8733 51.7364 19.0493 51.4459 19.2333 51.2438C19.4173 51.0335 19.6693 50.8607 19.9893 50.7259C20.3093 50.5829 20.6733 50.5112 21.0813 50.5112ZM26.5737 51.4585V54.9196C26.5737 55.4248 26.8017 55.6775 27.2577 55.6775C27.5217 55.6775 27.8377 55.5976 28.2057 55.4375L28.3377 56.2838C27.9457 56.4777 27.5337 56.5743 27.1017 56.5743C26.6697 56.5743 26.3097 56.4398 26.0217 56.1701C25.7337 55.8922 25.5897 55.4713 25.5897 54.907V51.4585H24.8337V50.6627H25.5897V49.5259L26.3337 48.8059H26.5737V50.6627H28.1217V51.4585H26.5737ZM31 51.4585V54.9196C31 55.4248 31.228 55.6775 31.684 55.6775C31.948 55.6775 32.2642 55.5976 32.632 55.4375L32.764 56.2838C32.3722 56.4777 31.96 56.5743 31.528 56.5743C31.096 56.5743 30.736 56.4398 30.448 56.1701C30.16 55.8922 30.016 55.4713 30.016 54.907V51.4585H29.2601V50.6627H30.016V49.5259L30.76 48.8059H31V50.6627H32.548V51.4585H31ZM37.2025 52.9743V52.4185C37.2025 51.7364 36.8665 51.3954 36.1945 51.3954C35.6665 51.3954 35.1145 51.5766 34.5385 51.9385L34.1905 51.1806C34.8625 50.7344 35.5864 50.5112 36.3625 50.5112C36.9064 50.5112 37.3504 50.6586 37.6945 50.9533C38.0464 51.2397 38.2225 51.6859 38.2225 52.2922V56.4227H37.5745L37.2745 55.6648C37.0186 55.9427 36.7144 56.166 36.3625 56.3343C36.0106 56.4944 35.6905 56.5743 35.4025 56.5743C34.9066 56.5743 34.5106 56.4313 34.2145 56.1448C33.9184 55.8587 33.7705 55.4839 33.7705 55.0206C33.7705 53.6564 34.9144 52.9743 37.2025 52.9743ZM35.2105 54.1996C35.0584 54.343 34.9546 54.4734 34.8985 54.5912C34.8505 54.7007 34.8265 54.8482 34.8265 55.0333C34.8265 55.2101 34.8985 55.3661 35.0425 55.5006C35.1946 55.627 35.3905 55.6901 35.6305 55.6901C36.1345 55.6901 36.6586 55.4545 37.2025 54.9827V53.7196C36.1945 53.7366 35.5306 53.8964 35.2105 54.1996ZM48.8083 47.6943L50.5483 55.2227H50.5963L52.3483 47.6943H53.4043L51.2923 56.4227H49.8163L48.2443 49.9301H48.1963L46.6363 56.4227H45.1963L43.0483 47.6943H44.2243L45.9643 55.2227H46.0123L47.7643 47.6943H48.8083ZM56.287 55.6901C56.863 55.6901 57.439 55.5092 58.015 55.147L58.363 55.9048C57.691 56.3514 56.971 56.5743 56.203 56.5743C55.4431 56.5743 54.8392 56.3217 54.391 55.8164C53.9431 55.303 53.719 54.5659 53.719 53.6059C53.719 52.6459 53.9512 51.8924 54.415 51.3448C54.8791 50.7891 55.495 50.5112 56.263 50.5112C56.959 50.5112 57.5071 50.7385 57.907 51.1933C58.075 51.3786 58.2151 51.648 58.327 52.0017C58.447 52.3554 58.507 52.7722 58.507 53.2522L58.135 53.6943H54.739C54.763 55.0251 55.279 55.6901 56.287 55.6901ZM57.499 52.8985C57.499 52.4271 57.3832 52.0481 57.151 51.7617C56.9191 51.4756 56.611 51.3322 56.227 51.3322C55.8511 51.3322 55.531 51.4756 55.267 51.7617C55.003 52.0396 54.8431 52.4185 54.787 52.8985H57.499ZM62.1751 55.7154C62.7751 55.7154 63.2389 55.5006 63.5671 55.0712C63.895 54.6417 64.0591 54.1238 64.0591 53.5175C64.0591 52.9112 63.9151 52.4271 63.6271 52.0648C63.3391 51.6944 62.9671 51.5091 62.5111 51.5091C62.0629 51.5091 61.5829 51.6524 61.0711 51.9385V55.488C61.447 55.6396 61.8151 55.7154 62.1751 55.7154ZM61.0711 47.3533V51.1301C61.6789 50.7682 62.2909 50.587 62.9071 50.587C63.5311 50.587 64.051 50.8522 64.4671 51.3827C64.8829 51.9051 65.0911 52.5913 65.0911 53.4417C65.0911 54.2924 64.8469 55.0292 64.3591 55.6522C63.8791 56.2671 63.1909 56.5743 62.2951 56.5743C61.6069 56.5743 60.871 56.3893 60.0871 56.0185V47.3533H61.0711ZM74.4739 48.7806C73.9138 48.5785 73.3939 48.4775 72.9139 48.4775C72.4339 48.4775 72.0418 48.6082 71.7379 48.8691C71.4337 49.1302 71.2818 49.446 71.2818 49.8164C71.2818 50.347 71.5498 50.7638 72.0859 51.067L73.7779 52.0522C74.7217 52.608 75.1939 53.3239 75.1939 54.1996C75.1939 54.924 74.9497 55.5006 74.4619 55.9301C73.9738 56.3596 73.2859 56.5743 72.3979 56.5743C71.5099 56.5743 70.7137 56.406 70.0099 56.0691L70.3099 55.1849C70.9657 55.488 71.6098 55.6396 72.2419 55.6396C72.8818 55.6396 73.3537 55.5092 73.6579 55.248C73.9618 54.9872 74.1139 54.6714 74.1139 54.3006C74.1139 53.7701 73.8457 53.3533 73.3099 53.0501L71.6179 52.0648C70.6738 51.5091 70.2019 50.7935 70.2019 49.9175C70.2019 49.1934 70.4458 48.6164 70.9339 48.187C71.4217 47.7575 72.0778 47.5427 72.9019 47.5427C73.4617 47.5427 74.0899 47.665 74.7859 47.9091L74.4739 48.7806ZM79.0903 55.6901C79.6663 55.6901 80.2423 55.5092 80.8183 55.147L81.1663 55.9048C80.4943 56.3514 79.7743 56.5743 79.0063 56.5743C78.2464 56.5743 77.6425 56.3217 77.1943 55.8164C76.7464 55.303 76.5223 54.5659 76.5223 53.6059C76.5223 52.6459 76.7545 51.8924 77.2183 51.3448C77.6824 50.7891 78.2983 50.5112 79.0663 50.5112C79.7623 50.5112 80.3104 50.7385 80.7103 51.1933C80.8783 51.3786 81.0184 51.648 81.1303 52.0017C81.2503 52.3554 81.3102 52.7722 81.3102 53.2522L80.9383 53.6943H77.5423C77.5663 55.0251 78.0823 55.6901 79.0903 55.6901ZM80.3023 52.8985C80.3023 52.4271 80.1865 52.0481 79.9543 51.7617C79.7224 51.4756 79.4142 51.3322 79.0302 51.3322C78.6543 51.3322 78.3343 51.4756 78.0703 51.7617C77.8063 52.0396 77.6464 52.4185 77.5903 52.8985H80.3023ZM82.9263 50.6627H83.5744L83.8743 51.6733H83.9224C84.3622 51.0755 84.9664 50.7133 85.7344 50.587L85.8423 51.5848C85.4661 51.6101 85.1022 51.7112 84.7503 51.888C84.3981 52.0649 84.1303 52.3007 83.9464 52.5954V56.4227H82.9263V50.6627ZM89.3034 56.4227H88.1755L86.2675 50.6627H87.2995L88.7155 55.2733H88.7634L90.1794 50.6627H91.2114L89.3034 56.4227ZM93.5619 49.3112C93.4338 49.446 93.2778 49.5133 93.0939 49.5133C92.9097 49.5133 92.7537 49.446 92.6259 49.3112C92.4978 49.1681 92.434 48.9998 92.434 48.8059C92.434 48.6123 92.4978 48.4481 92.6259 48.3133C92.7618 48.1702 92.9178 48.0985 93.0939 48.0985C93.2697 48.0985 93.4219 48.1702 93.55 48.3133C93.6859 48.4481 93.754 48.6123 93.754 48.8059C93.754 48.9998 93.6897 49.1681 93.5619 49.3112ZM92.59 50.6627H93.61V56.4227H92.59V50.6627ZM97.9432 50.5112C98.4793 50.5112 99.0232 50.6375 99.5752 50.8901L99.2752 51.6733C98.8672 51.4882 98.4313 51.3954 97.9672 51.3954C97.5112 51.3954 97.1472 51.5766 96.8751 51.9385C96.6111 52.3007 96.4791 52.8313 96.4791 53.5301C96.4791 54.2293 96.6193 54.7639 96.8992 55.1343C97.1794 55.5051 97.5472 55.6901 98.0032 55.6901C98.4592 55.6901 98.9314 55.5723 99.4192 55.3364L99.6471 56.1701C99.0873 56.4398 98.5192 56.5743 97.9432 56.5743C97.1992 56.5743 96.5913 56.2923 96.1191 55.728C95.6553 55.1555 95.4231 54.4229 95.4231 53.5301C95.4231 52.6292 95.6553 51.9006 96.1191 51.3448C96.5913 50.7891 97.1992 50.5112 97.9432 50.5112ZM103.297 55.6901C103.873 55.6901 104.449 55.5092 105.025 55.147L105.373 55.9048C104.701 56.3514 103.981 56.5743 103.213 56.5743C102.453 56.5743 101.849 56.3217 101.401 55.8164C100.953 55.303 100.729 54.5659 100.729 53.6059C100.729 52.6459 100.961 51.8924 101.425 51.3448C101.889 50.7891 102.505 50.5112 103.273 50.5112C103.969 50.5112 104.517 50.7385 104.917 51.1933C105.085 51.3786 105.225 51.648 105.337 52.0017C105.457 52.3554 105.517 52.7722 105.517 53.2522L105.145 53.6943H101.749C101.773 55.0251 102.289 55.6901 103.297 55.6901ZM104.509 52.8985C104.509 52.4271 104.393 52.0481 104.161 51.7617C103.929 51.4756 103.621 51.3322 103.237 51.3322C102.861 51.3322 102.541 51.4756 102.277 51.7617C102.013 52.0396 101.853 52.4185 101.797 52.8985H104.509ZM109.94 51.6733C109.532 51.4882 109.148 51.3954 108.788 51.3954C108.092 51.3954 107.744 51.6186 107.744 52.0648C107.744 52.4523 108.209 52.8272 109.136 53.1891C109.481 53.3239 109.796 53.5345 110.084 53.8206C110.381 54.1071 110.528 54.4522 110.528 54.8564C110.528 55.4375 110.348 55.8714 109.988 56.1575C109.628 56.4354 109.128 56.5743 108.488 56.5743C107.849 56.5743 107.225 56.3893 106.616 56.0185L106.916 55.2354C107.42 55.5385 107.993 55.6901 108.632 55.6901C108.905 55.6901 109.124 55.6314 109.292 55.5133C109.46 55.387 109.544 55.2186 109.544 55.008C109.544 54.7977 109.448 54.6164 109.256 54.4649C109.064 54.3133 108.833 54.1787 108.56 54.0606C108.288 53.9428 108.017 53.8165 107.744 53.6817C107.472 53.5386 107.24 53.3406 107.048 53.088C106.856 52.8354 106.76 52.5366 106.76 52.1912C106.76 51.6524 106.932 51.2397 107.276 50.9533C107.628 50.6586 108.072 50.5112 108.608 50.5112C109.145 50.5112 109.688 50.6375 110.24 50.8901L109.94 51.6733Z" fill="black"/>
</svg>
